# xmcd
#
# Track frame offsets:
#	150
#	26985
#	47589
#	66301
#	84151
#	109561
#	124873
#	144058
#
# Disc length: 2167 seconds
#
# Revision: 0
# Processed by: cddbd v1.5.2PL0 Copyright (c) Steve Scherf et al.
# Submitted via: EZCDAudioConverter 1.0.7.1
#
DISCID=62087508
DTITLE=Frederick
DYEAR=1985
DGENRE=
TTITLE0=Somebody Won't Sleep Tonight
TTITLE1=I Love You
TTITLE2=Games
TTITLE3=Move On
TTITLE4=Gentle (ft Janice Dowlen)
TTITLE5=Girl I Know You're Lonely
TTITLE6=That Body 
TTITLE7=Love Taker
EXTD=
EXTT0=
EXTT1=
EXTT2=
EXTT3=
EXTT4=
EXTT5=
EXTT6=
EXTT7=
PLAYORDER=
